# xmcd
#
# Track frame offsets: 
#        150
#        32806
#        65247
#        91726
#        108977
#        125472
#        138108
#        159589
#        179714
#        200653
#        217521
#        260969
#        276264
#        290092
#        308657
#
# Disc length: 4297 seconds
#
# Revision: 0
# Processed by: cddbd v1.5.2PL0 Copyright (c) Steve Scherf et al.
# Submitted via: ExactAudioCopyFreeDBPlugin 1.0
#
DISCID=e710c70f
DTITLE=Juan Gabriel - Hasta Que Te Conoci
DYEAR=2016
DGENRE=Latin
TTITLE0=Hasta Que Te Conocí
TTITLE1=Amor Eterno
TTITLE2=Pero Que Necesidad
TTITLE3=Caray
TTITLE4=Te Lo Pido por Favor
TTITLE5=Te Sigo Amando
TTITLE6=Ven A Mi Soledad
TTITLE7=Yo No Naci Para Amar
TTITLE8=De Mi Enamorate
TTITLE9=Ya Lo Se Que Tu Te Vas
TTITLE10=Debo Hacerlo
TTITLE11=Me He Quedado Solo
TTITLE12=Yo Me Voy
TTITLE13=Con Tu Amor
TTITLE14=No Tengo Dinero
EXTD=
EXTT0=
EXTT1=
EXTT2=
EXTT3=
EXTT4=
EXTT5=
EXTT6=
EXTT7=
EXTT8=
EXTT9=
EXTT10=
EXTT11=
EXTT12=
EXTT13=
EXTT14=
PLAYORDER=
